<svg id="Layer_1" data-name="Layer 1" xmlns="http://www.w3.org/2000/svg" viewBox="0 0 192 192"><defs><style>.cls-1{fill:#fff;}.cls-2{fill:none;stroke:#fff;stroke-miterlimit:10;stroke-width:6px;}</style></defs><title>bug</title><path class="cls-1" d="M65.92,67.32a46.83,46.83,0,0,0,9.18,76.49A46.87,46.87,0,0,0,87.88,83.67,47,47,0,0,1,65.92,67.32Z"/><path class="cls-1" d="M127.2,67.32A46.83,46.83,0,0,1,118,143.81a46.87,46.87,0,0,1-12.78-60.14A47,47,0,0,0,127.2,67.32Z"/><path class="cls-1" d="M97,55.5a46.64,46.64,0,0,0-25.77,7.73,27.94,27.94,0,0,0,50-1A46.65,46.65,0,0,0,97,55.5Z"/><line class="cls-2" x1="74.5" y1="43.13" x2="88.5" y2="60.98"/><line class="cls-2" x1="117.25" y1="43.13" x2="103.25" y2="60.98"/></svg>