<svg id="Layer_1" data-name="Layer 1" xmlns="http://www.w3.org/2000/svg" viewBox="0 0 192 192"><defs><style>.cls-1{fill:#fff;}</style></defs><title>dragon</title><path class="cls-1" d="M138.39,85.88c-4.9-11.49-15-25.2-35.59-26.63l5.31-16.16a4.63,4.63,0,0,0-.5-3.95l0,0a2.66,2.66,0,0,0-2.25-1.23h-2a.27.27,0,0,0-.22.11C102,39.55,89.3,56.85,70.59,69.28A24.65,24.65,0,0,0,63,77.4l-12.84,22a1.92,1.92,0,0,0,0,2,3.72,3.72,0,0,0,4,1.68l45.6-10.35a5.33,5.33,0,0,0,3.11-2l.95-1.28a9.17,9.17,0,0,0,.79-5.87s1.45,3.81.37,6.57h0c3.12,2,11.3,8.62,8.34,19.93-3.62,13.88-22,16-31.12,8.63l-.87-.16a.73.73,0,0,0-.77.9l.64,2.64-1.6-.83a25,25,0,0,1-5.5-3.87l-.53-.49a1,1,0,0,0-1.62,1.09l.42,1.13A12.42,12.42,0,0,0,75,123.28l.9,1-1.75-.94A31.13,31.13,0,0,1,66.78,116L65,113.55a.71.71,0,0,0-1.18.71,30.8,30.8,0,0,0,4.81,9.5s-7.31-7.12-9.68-14.33a.36.36,0,0,0-.7.12c.33,7,3.08,23.17,20.74,31.72a45.43,45.43,0,0,0,39.81-.17,40.88,40.88,0,0,0,19.82-20.39C143.54,109.64,143.13,97,138.39,85.88ZM81,80.91s-2.62,4.53-6.69,5.47-5.81.38-5.81.38S75.44,76.56,81,75.06C81,75.06,82.06,78.56,81,80.91Z"/></svg>