<svg id="Layer_1" data-name="Layer 1" xmlns="http://www.w3.org/2000/svg" viewBox="0 0 192 192"><defs><style>.cls-1{fill:#fff;}</style></defs><title>fairy</title><path class="cls-1" d="M141.59,96a76.74,76.74,0,0,1-23-13.39A65.85,65.85,0,0,1,123,69a64,64,0,0,1-13.48,4.5A77,77,0,0,1,96,50.41,77.9,77.9,0,0,1,82.43,73.52,64.4,64.4,0,0,1,69,69a65.14,65.14,0,0,1,4.43,13.43A77.89,77.89,0,0,1,50.41,96a78.74,78.74,0,0,1,23,13.62A65.14,65.14,0,0,1,69,123a65.85,65.85,0,0,1,13.38-4.37,78.73,78.73,0,0,1,13.58,23,78.73,78.73,0,0,1,13.58-23A65.84,65.84,0,0,1,123,123a65.85,65.85,0,0,1-4.37-13.38A78.75,78.75,0,0,1,141.59,96Zm-40.42,5.21a22.78,22.78,0,0,0-5.17,8A22.74,22.74,0,0,0,82.78,96,22.49,22.49,0,0,0,96,82.78,22.24,22.24,0,0,0,109.22,96,22.78,22.78,0,0,0,101.17,101.21Z"/></svg>