<svg id="Layer_1" data-name="Layer 1" xmlns="http://www.w3.org/2000/svg" viewBox="0 0 192 192"><defs><style>.cls-1{fill:#fff;}</style></defs><title>fighting</title><path class="cls-1" d="M136.09,102l.13-29.74h0c0-.21,0-.42,0-.63a7.23,7.23,0,0,0-13.64-3.37c0-.09,0-.18,0-.26a9.33,9.33,0,0,0-17.26-5,9,9,0,0,0-17.42-4.27,8.52,8.52,0,0,0-16.73,1l-.32-.06L70.49,72h.07V98.67l-.62,0-.1-20.19A26.28,26.28,0,0,0,58.63,90.25c-4,8.57-1.57,16.69-.37,20.75a40.07,40.07,0,0,0,14.88,20.63c13.56,9.8,37.66,13.91,52.25,0C136.41,121.1,136.24,105.76,136.09,102Z"/></svg>