<svg id="Layer_1" data-name="Layer 1" xmlns="http://www.w3.org/2000/svg" viewBox="0 0 192 192"><defs><style>.cls-1{fill:#fff;}</style></defs><title>fire</title><path class="cls-1" d="M67.75,97.25s1.75-9.75,12.75-17S102.25,58,94.5,45a28.14,28.14,0,0,1,11.75,21.25,41.92,41.92,0,0,1-1.25,14C103,88,111.25,87,111.25,87s9.25-4,0-14.75c0,0,21.5,3.5,21.5,30.75,0,0-2.75,26-24.25,27.75,0,0,10.75-10.25,5.5-20.75,0,0-3.17,13.67-15.75,12.25,0,0,7.88-2.87,7.5-9.37s-5.12-8.12-7.5-8.25c0,0-8.37-.75-9.5,6.75,0,0-1.12,4.88,2.38,8.38,0,0-5.37-1.37-7.12-9.25,0,0-4.25,15.5,8.63,23.63s26.88,0,26.88,0-9,13-29,9.38a36.12,36.12,0,0,1-26.62-20S56,103.88,65.13,89.25C65.13,89.25,65.5,96.75,67.75,97.25Z"/></svg>