<svg id="Layer_1" data-name="Layer 1" xmlns="http://www.w3.org/2000/svg" viewBox="0 0 192 192"><defs><style>.cls-1{fill:#fff;}</style></defs><title>flaying</title><path class="cls-1" d="M147.64,52.13C128.51,64.54,112,69.29,100,71.25s-20.72,1.36-30.62,8.38c-3,2.16-15.38,10.9-15.87,25.88-.46,14.07,9.87,23.13,11,24.11,14.46,12.27,35,5.61,41.08,1.79l.44-.28a32.79,32.79,0,0,0,11.85-13.24,68.78,68.78,0,0,1-20,2,47.28,47.28,0,0,0,31-20,68.65,68.65,0,0,1-32,7.6,51.3,51.3,0,0,0,29.5-12.37,49,49,0,0,0,10.83-13.88,67.27,67.27,0,0,1-39.31,9.48,66,66,0,0,0,34.71-16.85A64.59,64.59,0,0,0,147.64,52.13Z"/></svg>