<svg id="Layer_1" data-name="Layer 1" xmlns="http://www.w3.org/2000/svg" viewBox="0 0 192 192"><defs><style>.cls-1{fill:#fff;}</style></defs><title>ghost</title><path class="cls-1" d="M124,123.33c40.22-40.22-17.61-98.06-57.83-57.83-35.67,44.88,14.08,87.88,66,66C127.08,129.86,124.2,127.2,124,123.33ZM89.82,92.82c-10.07,7.93-20.49-2.64-11.57-11.57,5.63,0-3.75,7.5,11,5.63C91.06,88.06,89.75,92,89.82,92.82Zm10.45,0c.07-.85-1.25-4.75.57-5.94,14.75,1.88,5.38-5.65,11-5.62C120.75,90.17,110.33,100.75,100.26,92.82Z"/></svg>