<svg id="Layer_1" data-name="Layer 1" xmlns="http://www.w3.org/2000/svg" viewBox="0 0 192 192"><defs><style>.cls-1{fill:#fff;}</style></defs><title>ice</title><polygon class="cls-1" points="67 41.59 67 75.93 96 90.59 96 60.26 67 41.59"/><polygon class="cls-1" points="67 148.59 67 114.26 96 99.59 96 129.93 67 148.59"/><polygon class="cls-1" points="96 94.65 67 79.65 39.75 94.65 67 110.4 96 94.65"/><polygon class="cls-1" points="128 41.59 128 75.93 99 90.59 99 60.26 128 41.59"/><polygon class="cls-1" points="128 148.59 128 114.26 99 99.59 99 129.93 128 148.59"/><polygon class="cls-1" points="99 94.65 128 79.65 155.25 94.65 128 110.4 99 94.65"/></svg>