<svg id="Layer_1" data-name="Layer 1" xmlns="http://www.w3.org/2000/svg" viewBox="0 0 192 192"><defs><style>.cls-1{fill:#fff;}</style></defs><title>poison</title><path class="cls-1" d="M141.13,90.5c0-21.12-20-38.25-44.56-38.25S52,69.38,52,90.5c0,12.17,6.63,23,17,30a18.59,18.59,0,0,0-.67,5c0,7.45,4.22,13.48,9.43,13.48,4.64,0,8.49-4.8,9.27-11.11l.16,0c0,.05,0,.11,0,.16,0,6,4.22,10.92,9.43,10.92S106,134.08,106,128c0-.05,0-.11,0-.16l.16,0c.78,6.32,4.63,11.11,9.27,11.11,5.21,0,9.43-6,9.43-13.48a18.59,18.59,0,0,0-.67-5C134.49,113.51,141.13,102.67,141.13,90.5ZM96.68,67.83c14.89,0,27,10.36,27,23.15s-12.07,23.15-27,23.15-27-10.36-27-23.15S81.79,67.83,96.68,67.83Z"/></svg>