<svg id="Layer_1" data-name="Layer 1" xmlns="http://www.w3.org/2000/svg" viewBox="0 0 192 192"><defs><style>.cls-1{fill:#fff;}</style></defs><title>psychic</title><path class="cls-1" d="M96,91.83c2.33,8.57,16.33-1,4.24-6.83C88.67,82.83,81.5,102.5,96,107.67c43.42,8.25,25.5-60.17-15.83-35-29,25.5-1.17,78,51.83,54.33-12.52,10.68-25.8,14.4-37.84,13.23-22.08-2.14-39.78-21.86-41.42-43.36-.18-2.42-1.36-22.17,13.59-35.54,15.82-14.14,41.67-14,56.79-.83,2.68,2.34,13.58,12.52,13.05,28.6-.54,16.59-12.79,26.26-14.51,27.56C89,132.67,64.33,102,84.33,79.33c20.79-17.21,42,13.54,22.83,22.83C98.92,105.71,89.29,99.58,93.29,90a2,2,0,0,1,1.22-.06A2.23,2.23,0,0,1,96,91.83Z"/></svg>